<?xml version="1.0" standalone="no"?>
<!DOCTYPE svg PUBLIC "-//W3C//DTD SVG 20010904//EN"
 "http://www.w3.org/TR/2001/REC-SVG-20010904/DTD/svg10.dtd">
<svg version="1.0" xmlns="http://www.w3.org/2000/svg"
 width="500.000000pt" height="500.000000pt" viewBox="0 0 500.000000 500.000000"
 preserveAspectRatio="xMidYMid meet">
<metadata>
Created by potrace 1.14, written by Peter Selinger 2001-2017
</metadata>
<g transform="translate(0.000000,500.000000) scale(0.100000,-0.100000)"
fill="#000000" stroke="none">
<path d="M1266 4082 c-3 -5 1 -9 9 -9 8 0 12 4 9 9 -3 4 -7 8 -9 8 -2 0 -6 -4
-9 -8z"/>
<path d="M2715 4080 c3 -5 8 -10 11 -10 2 0 4 5 4 10 0 6 -5 10 -11 10 -5 0
-7 -4 -4 -10z"/>
<path d="M790 4040 c0 -5 5 -10 11 -10 5 0 7 5 4 10 -3 6 -8 10 -11 10 -2 0
-4 -4 -4 -10z"/>
<path d="M1120 4040 c-9 -6 -10 -10 -3 -10 6 0 15 5 18 10 8 12 4 12 -15 0z"/>
<path d="M2790 4040 c0 -5 5 -10 11 -10 5 0 7 5 4 10 -3 6 -8 10 -11 10 -2 0
-4 -4 -4 -10z"/>
<path d="M395 4000 c-3 -5 -1 -10 4 -10 6 0 11 5 11 10 0 6 -2 10 -4 10 -3 0
-8 -4 -11 -10z"/>
<path d="M550 4000 c0 -5 5 -10 11 -10 5 0 7 5 4 10 -3 6 -8 10 -11 10 -2 0
-4 -4 -4 -10z"/>
<path d="M720 4000 c-9 -6 -10 -10 -3 -10 6 0 15 5 18 10 8 12 4 12 -15 0z"/>
<path d="M2419 3993 c-13 -16 -12 -17 4 -4 9 7 17 15 17 17 0 8 -8 3 -21 -13z"/>
<path d="M2720 4000 c-9 -6 -10 -10 -3 -10 6 0 15 5 18 10 8 12 4 12 -15 0z"/>
<path d="M1055 3981 c-3 -6 -107 -10 -242 -10 -152 -1 -250 -5 -272 -12 -32
-11 -76 -52 -76 -70 0 -4 -3 -11 -7 -15 -12 -12 -9 -80 4 -111 7 -15 25 -39
40 -52 15 -13 25 -27 22 -32 -3 -5 1 -9 8 -9 15 0 44 -40 39 -55 -1 -5 1 -7 5
-3 4 4 14 -1 23 -11 43 -49 144 -162 189 -210 28 -30 48 -59 45 -65 -3 -6 -3
-8 2 -4 10 10 122 -109 117 -124 -1 -5 5 -8 13 -8 7 0 18 -6 22 -14 4 -8 35
-45 68 -82 33 -37 59 -71 57 -76 -1 -5 2 -7 7 -4 5 3 20 -9 34 -27 14 -17 45
-53 70 -79 24 -27 43 -48 40 -48 -2 0 12 -15 32 -32 19 -18 35 -39 35 -46 0
-7 4 -11 8 -8 5 3 15 -6 22 -19 7 -14 17 -25 22 -25 5 0 6 -5 2 -12 -4 -6 -3
-8 3 -5 6 4 23 -10 39 -29 16 -20 45 -53 64 -74 88 -95 120 -131 120 -135 0
-3 21 -25 46 -50 l46 -44 -28 -40 c-16 -22 -35 -41 -43 -41 -8 0 -12 -3 -8 -6
6 -6 -12 -28 -88 -109 -22 -23 -62 -68 -90 -100 -72 -83 -75 -86 -87 -79 -7 4
-8 2 -4 -4 8 -13 -61 -89 -76 -84 -5 1 -7 -2 -4 -7 7 -11 -42 -67 -56 -63 -5
1 -7 -1 -5 -5 9 -14 -21 -46 -34 -37 -7 4 -10 3 -5 -4 3 -6 -1 -17 -9 -25 -8
-9 -15 -20 -15 -26 0 -6 -5 -11 -11 -11 -6 0 -17 -7 -25 -15 -9 -8 -13 -15 -9
-15 4 0 -16 -23 -44 -50 -28 -28 -51 -53 -51 -55 0 -3 -20 -25 -44 -50 -25
-25 -42 -45 -39 -45 3 0 -11 -15 -31 -34 -20 -19 -36 -39 -36 -45 0 -6 -7 -11
-15 -11 -8 0 -15 -4 -15 -10 0 -5 -17 -28 -37 -50 -96 -102 -113 -121 -113
-131 0 -5 -4 -7 -10 -4 -5 3 -10 3 -10 -2 0 -12 -78 -98 -89 -98 -5 0 -13 -4
-18 -9 -5 -5 -3 -6 5 -2 23 14 12 -6 -25 -42 -20 -21 -41 -36 -47 -34 -6 2 -8
0 -4 -4 4 -4 3 -13 -3 -21 -6 -7 -8 -13 -3 -13 5 0 2 -5 -6 -10 -10 -6 -15
-26 -15 -64 0 -62 21 -99 75 -130 31 -18 58 -19 480 -20 247 -1 466 3 488 7
39 8 47 14 142 115 14 15 79 88 145 162 66 74 129 144 140 155 11 11 38 41 59
65 22 25 74 83 117 130 43 47 87 96 99 110 23 27 128 145 145 164 6 6 35 38
65 71 156 172 214 237 232 257 10 13 36 41 56 63 122 134 187 208 202 232 29
49 14 128 -34 179 -6 7 -42 47 -81 89 -38 43 -81 91 -95 106 -14 15 -54 60
-90 100 -81 90 -89 99 -178 197 -40 44 -85 94 -100 112 -15 17 -45 51 -67 74
-22 24 -60 67 -85 95 -25 29 -58 67 -75 84 -48 52 -145 159 -210 233 -33 37
-71 79 -85 94 -28 30 -146 162 -204 226 -54 62 -87 74 -201 74 -74 0 -95 3
-89 13 6 10 4 10 -7 0 -16 -16 -244 -19 -234 -3 3 6 4 10 1 10 -3 0 -7 -4 -11
-9z"/>
<path d="M2494 3980 c-5 -5 -24 -10 -42 -12 -17 -1 -32 -6 -32 -10 0 -4 -4 -8
-10 -8 -15 0 -49 -38 -62 -68 -13 -32 -17 -102 -6 -102 4 0 8 -7 8 -16 0 -9
11 -27 26 -40 14 -13 23 -24 20 -24 -2 0 12 -17 32 -38 20 -21 69 -73 107
-116 39 -43 81 -91 95 -106 104 -113 165 -185 162 -193 -1 -4 2 -5 8 -2 7 4
14 -2 17 -14 3 -11 9 -18 14 -16 11 7 30 -30 21 -40 -4 -5 -2 -5 4 -2 6 4 23
-7 38 -23 14 -17 24 -30 22 -30 -3 0 15 -19 39 -42 24 -23 41 -46 39 -50 -3
-5 -2 -7 3 -6 5 2 25 -15 44 -37 18 -22 39 -45 44 -51 6 -6 42 -46 80 -89 39
-42 82 -91 97 -108 15 -16 25 -34 22 -38 -3 -5 2 -6 10 -3 9 3 16 2 16 -2 0
-5 27 -38 60 -74 33 -36 58 -71 55 -78 -3 -7 -1 -10 5 -7 12 8 71 -55 63 -68
-3 -5 -2 -7 4 -4 14 9 55 -41 47 -56 -4 -7 -3 -9 1 -4 9 8 45 -20 45 -36 0 -5
-7 -7 -14 -4 -11 4 -13 1 -9 -10 4 -11 2 -14 -5 -9 -7 4 -12 1 -12 -8 0 -9 -4
-16 -9 -16 -5 0 -13 -9 -16 -21 -4 -13 -12 -18 -21 -15 -8 3 -13 2 -10 -2 2
-4 -2 -16 -10 -27 -8 -10 -14 -15 -14 -9 0 5 -8 -6 -16 -23 -9 -18 -20 -30
-25 -27 -5 3 -9 1 -9 -4 0 -5 -9 -19 -20 -32 -17 -20 -22 -21 -37 -9 -17 13
-17 13 -4 -4 14 -17 12 -22 -18 -48 -19 -16 -31 -29 -27 -29 4 0 -11 -19 -33
-42 -23 -22 -41 -45 -41 -50 0 -4 -7 -8 -17 -8 -9 0 -14 -3 -11 -6 6 -5 -42
-63 -112 -134 -19 -20 -53 -58 -75 -84 -22 -26 -62 -71 -88 -99 -27 -29 -65
-71 -85 -94 -38 -43 -59 -56 -48 -27 3 9 2 12 -5 9 -5 -4 -7 -15 -4 -25 4 -13
-9 -34 -45 -71 -27 -28 -50 -56 -50 -61 0 -4 -7 -8 -15 -8 -8 0 -15 -7 -15
-15 0 -9 -7 -18 -15 -21 -8 -4 -15 -13 -15 -21 0 -8 -4 -12 -9 -9 -5 3 -19
-10 -32 -29 -13 -19 -30 -33 -37 -30 -7 3 -10 0 -7 -6 4 -6 0 -18 -9 -27 -9
-9 -31 -33 -48 -53 -18 -20 -54 -59 -80 -87 -58 -63 -78 -101 -78 -146 0 -66
22 -101 81 -133 32 -17 67 -18 499 -17 404 1 469 3 496 17 17 8 56 45 88 81
32 37 72 81 89 99 18 19 64 69 102 112 39 43 75 83 80 89 37 41 182 203 190
212 5 6 44 49 85 94 41 46 82 91 90 100 8 9 33 36 54 60 22 25 78 87 125 139
105 115 111 121 186 206 33 38 72 81 86 96 14 15 51 56 82 91 30 35 69 78 85
96 43 48 54 119 27 172 -8 16 -34 49 -58 74 -23 24 -64 70 -92 101 -58 66 -65
73 -169 188 -43 48 -87 97 -98 109 -26 31 -137 154 -168 188 -27 29 -153 169
-210 233 -19 22 -44 49 -55 61 -11 12 -58 64 -105 116 -47 52 -99 111 -117
130 -17 19 -40 44 -50 56 -49 56 -172 191 -201 221 -44 45 -68 53 -162 54 -53
1 -80 5 -80 13 0 8 -2 8 -8 0 -9 -15 -716 -19 -707 -4 8 13 2 13 -11 0z"/>
<path d="M3187 2399 c7 -7 15 -10 18 -7 3 3 -2 9 -12 12 -14 6 -15 5 -6 -5z"/>
<path d="M3427 2399 c7 -7 15 -10 18 -7 3 3 -2 9 -12 12 -14 6 -15 5 -6 -5z"/>
<path d="M3235 2280 c3 -5 8 -10 11 -10 2 0 4 5 4 10 0 6 -5 10 -11 10 -5 0
-7 -4 -4 -10z"/>
<path d="M3387 2239 c7 -7 15 -10 18 -7 3 3 -2 9 -12 12 -14 6 -15 5 -6 -5z"/>
<path d="M3075 2200 c3 -5 8 -10 11 -10 2 0 4 5 4 10 0 6 -5 10 -11 10 -5 0
-7 -4 -4 -10z"/>
<path d="M1195 2160 c3 -5 8 -10 11 -10 2 0 4 5 4 10 0 6 -5 10 -11 10 -5 0
-7 -4 -4 -10z"/>
<path d="M950 1846 c0 -2 7 -7 16 -10 8 -3 12 -2 9 4 -6 10 -25 14 -25 6z"/>
<path d="M715 1680 c3 -5 8 -10 11 -10 2 0 4 5 4 10 0 6 -5 10 -11 10 -5 0 -7
-4 -4 -10z"/>
<path d="M2555 1680 c3 -5 8 -10 11 -10 2 0 4 5 4 10 0 6 -5 10 -11 10 -5 0
-7 -4 -4 -10z"/>
<path d="M910 1639 c0 -5 5 -7 10 -4 6 3 10 8 10 11 0 2 -4 4 -10 4 -5 0 -10
-5 -10 -11z"/>
<path d="M2635 1600 c-3 -5 -1 -10 4 -10 6 0 11 5 11 10 0 6 -2 10 -4 10 -3 0
-8 -4 -11 -10z"/>
<path d="M2310 1280 c0 -5 5 -10 11 -10 5 0 7 5 4 10 -3 6 -8 10 -11 10 -2 0
-4 -4 -4 -10z"/>
</g>
</svg>
